<svg xmlns="http://www.w3.org/2000/svg"><symbol id="mecha-stilts" viewBox="0 0 221.6 255.9"><path d="M110.8 1.9l109 63v126l-109 63-109-63v-126l109-63z"/><path fill="#fff" d="M51 174.5a1.9 1.9 0 0 1-2-2.1v-25H21.7a2.1 2.1 0 0 1 0-4.2h15.5v-13.4a1.9 1.9 0 0 1 2.1-2.1h8a65.7 65.7 0 0 1 63.3-50.3c.2-.2.4-.2.8 0 30.6.2 56 21.8 62.8 50.3h8.1a2 2 0 0 1 2.1 2.1v13.4h15.5a2.1 2.1 0 0 1 0 4.2h-27.3v25a1.9 1.9 0 0 1-2.1 2.1zm-9.7-42.6v11.3h138.9v-11.3zm65.4-50.1c-26.5 1.6-48.6 20.9-55 45.9h22.1zm-53.6 65.6v22.9h55.6v-22.9zm55.6-61.5L79 127.7h29.7zm4.2-4.3v46.1h57a61.5 61.5 0 0 0-57-46.1zm0 65.8v22.9h9.3v-22.9zm13.4 0v22.9h42.2v-22.9z"/></symbol><symbol id="space-bubbles" viewBox="0 0 221.6 255.9"><path d="M110.8 1.9l109 63v126l-109 63-109-63v-126l109-63z"/><path fill="#fff" d="M49.2 179l-4.8-6.8a2.3 2.3 0 0 1 .2-2.5l17.2-20.3h-8.5a1.9 1.9 0 0 1-2-2v-14.9a1.9 1.9 0 0 1 2-2.1h12a59.6 59.6 0 0 1-2.3-15.7 49.1 49.1 0 0 1 49-48.9c26.7 0 48.8 22.2 48.8 48.9a49.4 49.4 0 0 1-2.3 15.7h12a1.9 1.9 0 0 1 2.1 2.1v14.9a1.9 1.9 0 0 1-2.1 2H160l16.9 20.3a2.1 2.1 0 0 1 0 2.5l-4.7 6.8a2.2 2.2 0 0 1-2.7.7l-9.9-5.2H61.8l-9.9 5.2a2.2 2.2 0 0 1-2.7-.7zm31.4-29.6H67L48.8 171l2.9 4.1 34.9-18.4zm-25.2-14.9v10.8h113.1v-10.8zm14.2-4.1h84.6a51.6 51.6 0 0 0 2.5-15.7 44.8 44.8 0 0 0-89.5 0c0 5.4.4 10.9 2.4 15.7zM89.5 160l-19.6 10.3H98zM86 149.4l17.3 20.9h14.9l17.4-20.9zm46.1 10.6l-8.5 10.3h28.1zm22.5-10.6H141l-6.2 7.3 35.1 18.4 2.9-3.9z"/></symbol><symbol id="super-domes" viewBox="0 0 221.6 255.9"><path d="M110.8 1.9l109 63v126l-109 63-109-63v-126l109-63z"/><path fill="#fff" d="M47.5 174.5a2.1 2.1 0 0 1 0-4.2h10.4v-13H47.5a1.9 1.9 0 0 1-2-2.1v-40.7a1.9 1.9 0 0 1 2-2.1h13.7c1-29.4 22.9-45.5 49.6-45.5s48.6 16.1 49.6 45.5H174a1.9 1.9 0 0 1 2.1 2.1v40.7a1.9 1.9 0 0 1-2.1 2.1h-10.3v13H174a2.1 2.1 0 1 1 0 4.2zm2.1-58v36.7H172v-36.7zM62 157.3v13h13.2v-13zm3.3-44.9h91C155.2 85.7 135 71 110.8 71s-44.5 14.7-45.5 41.4zm14.1 44.9v13H100v-13zm24.8 0v13h13.2v-13zm56-14.1h-50.4a2.1 2.1 0 1 1 0-4.1h50.4a2.1 2.1 0 1 1 0 4.1zm-38.7 14.1v13h20.7v-13zm24.8 0v13h13.3v-13z"/></symbol></svg>