<svg xmlns="http://www.w3.org/2000/svg"><symbol id="mecha-stilts" viewBox="0 0 221.6 255.9"><path d="M121.5 157.3h20.7v13.04h-20.7zm-17.3 0h13.2v13.04h-13.2zm-42.2 0h13.2v13.04H62zM110.8 71c-24.2 0-44.5 14.7-45.5 41.4h91C155.2 85.7 135 71 110.8 71zm-31.4 86.3h20.7v13.04H79.4z"/><path d="M110.8 1.9l-109 63v126l109 63 109-63v-126zm65.3 153.3a1.9 1.9 0 0 1-2.1 2.1h-10.3v13H174a2.1 2.1 0 1 1 0 4.2H47.5a2.1 2.1 0 0 1 0-4.2h10.4v-13H47.5a1.9 1.9 0 0 1-2-2.1v-40.7a1.9 1.9 0 0 1 2-2.1h13.7c1-29.4 22.9-45.5 49.6-45.5s48.6 16.1 49.6 45.5H174a1.9 1.9 0 0 1 2.1 2.1z"/><path d="M49.6 153.2H172v-36.7H49.6zm60.2-14.1h50.4a2.1 2.1 0 1 1 0 4.1h-50.4a2.1 2.1 0 1 1 0-4.1zm36.5 18.2h13.2v13.04h-13.2z"/></symbol><symbol id="space-bubbles" viewBox="0 0 221.6 255.9"><path d="M80.6 149.4H67L48.8 171l2.9 4.1 34.9-18.4-6-7.3zm73.6-20a51.6 51.6 0 0 0 2.5-15.7 44.8 44.8 0 0 0-89.5 0c0 5.4.4 10.9 2.4 15.7zm-98.8 5.1h113.1v10.76H55.4zM86 149.4l17.3 20.9h14.9l17.4-20.9H86zm-16.1 20.9H98L89.5 160l-19.6 10.3zm53.7 0h28.1L132.1 160l-8.5 10.3z"/><path d="M110.8 1.9l-109 63v126l109 63 109-63v-126zm66.1 170.3l-4.7 6.8a2.2 2.2 0 0 1-2.7.7l-9.9-5.2H61.8l-9.9 5.2a2.2 2.2 0 0 1-2.7-.7l-4.8-6.8a2.3 2.3 0 0 1 .2-2.5l17.2-20.3h-8.5a1.9 1.9 0 0 1-2-2v-14.9a1.9 1.9 0 0 1 2-2.1h12a59.6 59.6 0 0 1-2.3-15.7 49.1 49.1 0 0 1 49-48.9c26.7 0 48.8 22.2 48.8 48.9a49.4 49.4 0 0 1-2.3 15.7h12a1.9 1.9 0 0 1 2.1 2.1v14.9a1.9 1.9 0 0 1-2.1 2H160l16.9 20.3a2.1 2.1 0 0 1 0 2.5z"/><path d="M141 149.4l-6.2 7.3 35.1 18.4 2.9-3.9-18.2-21.8H141z"/></symbol><symbol id="super-domes" viewBox="0 0 221.6 255.9"><path d="M108.7 127.7V85.9L79 127.7h29.7zm-2-45.9c-26.5 1.6-48.6 20.9-55 45.9h22.1zm-53.6 65.6h55.6v22.97H53.1zm59.8-65.8v46.1h57a61.5 61.5 0 0 0-57-46.1z"/><path d="M110.8 1.9l-109 63v126l109 63 109-63v-126zm89.1 145.5h-27.3v25a1.9 1.9 0 0 1-2.1 2.1H51a1.9 1.9 0 0 1-2-2.1v-25H21.7a2.1 2.1 0 0 1 0-4.2h15.5v-13.4a1.9 1.9 0 0 1 2.1-2.1h8a65.7 65.7 0 0 1 63.3-50.3c.2-.2.4-.2.8 0 30.6.2 56 21.8 62.8 50.3h8.1a2 2 0 0 1 2.1 2.1v13.4h15.5a2.1 2.1 0 0 1 0 4.2z"/><path d="M112.9 147.4h9.3v22.97h-9.3zm-71.6-15.5h138.9v11.38H41.3zm85 15.5h42.2v22.97h-42.2z"/></symbol></svg>